<svg id="Слой_1" data-name="Слой 1" xmlns="http://www.w3.org/2000/svg" viewBox="0 0 1751 368"><title>logo_menelai</title><path d="M1284.34,37h60.09V357.66h-60.6V94.33H1249Z"/><path d="M25.49,111.28H85v27.25q15.27-16.78,33.92-25.07a99.18,99.18,0,0,1,40.69-8.28,75.69,75.69,0,0,1,40.14,10.9q17.88,10.9,28.79,31.82,14.18-20.93,34.79-31.82a95,95,0,0,1,45.05-10.9q25.31,0,44.5,11.77t27.59,30.74q8.4,19,8.4,61.69V348.45H328.93V228.12q0-40.32-10-54.6t-30.08-14.28A45.66,45.66,0,0,0,261.46,168q-12.09,8.72-18,24.09t-5.89,49.37v107H177.65V233.57q0-31.81-4.7-46.1t-14.09-21.26q-9.41-7-22.73-7a44.74,44.74,0,0,0-27,8.83Q97,176.89,91,192.81t-6,50.13v22.33a53.73,53.73,0,0,0-59.51,0Z"/><path d="M683.15,247.09H492q4.14,25.29,22.12,40.21T560,302.24q33.35,0,57.33-23.33l50.14,23.54q-18.75,26.61-44.91,39.35t-62.12,12.75q-55.81,0-90.9-35.2t-35.1-88.18q0-54.27,35-90.13t87.74-35.86q56,0,91.11,35.86t35.1,94.71Zm-59.51-46.87A59.68,59.68,0,0,0,600.38,168Q583,155.54,560.1,155.53q-24.89,0-43.67,13.95-11.79,8.73-21.84,30.74Z"/><path d="M731.32,111.28h59.51v24.31q20.25-17.07,36.68-23.74a88.6,88.6,0,0,1,33.63-6.67q35.26,0,59.86,24.63,20.68,20.92,20.68,61.91V348.45H882.82V244.59q0-42.45-3.8-56.39T865.75,167q-9.46-7.29-23.38-7.29a43.77,43.77,0,0,0-31,12.08q-12.95,12.09-17.95,33.42-2.61,11.12-2.61,48.12v95.15H731.32Z"/><path d="M1236.83,247.09H1045.66q4.14,25.29,22.12,40.21t45.89,14.94q33.35,0,57.33-23.33l50.13,23.54q-18.75,26.61-44.9,39.35t-62.13,12.75q-55.8,0-90.9-35.2t-35.09-88.18q0-54.27,35-90.13t87.73-35.86q56,0,91.12,35.86t35.1,94.71Zm-59.51-46.87A59.68,59.68,0,0,0,1154.06,168q-17.36-12.42-40.28-12.43-24.9,0-43.67,13.95-11.79,8.73-21.84,30.74Z"/><path d="M1567.07,111.28h59.51V348.45h-59.51V323.38q-17.41,16.58-34.94,23.87a97.8,97.8,0,0,1-38,7.3q-45.93,0-79.47-35.64t-33.53-88.61q0-54.93,32.45-90t78.81-35.09a100.26,100.26,0,0,1,40.06,8.06,109.28,109.28,0,0,1,34.62,24.2Zm-62.55,48.83q-27.6,0-45.85,19.51t-18.24,50q0,30.73,18.57,50.57t45.73,19.84q28,0,46.49-19.51t18.47-51.12q0-30.94-18.47-50.14T1504.52,160.11Z"/><path d="M1710,13.63A36.4,36.4,0,0,1,1736.8,25,37.63,37.63,0,0,1,1748,52.43a37.19,37.19,0,0,1-11.09,27.14,36,36,0,0,1-26.51,11.22,36.49,36.49,0,0,1-27.07-11.44,38.29,38.29,0,0,1-11.19-27.79,36.59,36.59,0,0,1,11.08-26.82A36.4,36.4,0,0,1,1710,13.63Z"/><path d="M54.17,279.26A36.4,36.4,0,0,1,81,290.59,37.66,37.66,0,0,1,92.2,318.06,37.22,37.22,0,0,1,81.12,345.2,36,36,0,0,1,54.6,356.42,36.45,36.45,0,0,1,27.54,345a38.27,38.27,0,0,1-11.19-27.79,36.61,36.61,0,0,1,11.08-26.82A36.38,36.38,0,0,1,54.17,279.26Z"/><path d="M1680.63,112.73a50.55,50.55,0,0,0,59.51,0V349.89h-59.51Z"/></svg>