<svg width="63" height="49" viewBox="0 0 63 49" fill="none" xmlns="http://www.w3.org/2000/svg">
<g clip-path="url(#clip0_27_189)">
<path fill-rule="evenodd" clip-rule="evenodd" d="M3.75254 20.0702V22.0407H4.90058C5.62024 22.0407 6.17427 22.1549 6.56266 22.3834C6.96248 22.6004 7.16238 23.0174 7.16238 23.6342C7.16238 24.2625 6.95677 24.7251 6.54553 25.0222C6.13429 25.3077 5.5517 25.4505 4.79777 25.4505C3.9296 25.4505 3.30703 25.2735 2.93007 24.9193C2.5531 24.5538 2.34177 24.0283 2.29608 23.3429H0C0 23.9255 0.0856745 24.4681 0.257023 24.9708C0.439796 25.462 0.719665 25.8903 1.09663 26.2559C1.25528 26.4052 1.43107 26.5411 1.62402 26.6638C3.49114 26.1712 5.44684 25.9095 7.46137 25.9095C7.89953 25.9095 8.33491 25.9218 8.7672 25.9463C9.26231 25.3618 9.50986 24.6368 9.50986 23.7713C9.50986 22.9488 9.29854 22.2977 8.87587 21.8179C8.45321 21.3382 7.91632 21.0354 7.26519 20.9098C7.88205 20.7499 8.3504 20.4528 8.67026 20.0188C8.99011 19.5733 9.15003 19.0307 9.15003 18.391C9.15003 17.934 9.05865 17.5171 8.87587 17.1401C8.70452 16.7517 8.43608 16.4204 8.07053 16.1463C7.71641 15.8721 7.25948 15.6608 6.69974 15.5123C6.15143 15.3524 5.50601 15.2724 4.7635 15.2724C3.9296 15.2724 3.22136 15.3695 2.63877 15.5637C2.06761 15.7579 1.59926 16.0263 1.23371 16.369C0.879591 16.7117 0.616856 17.1173 0.445507 17.5856C0.285582 18.054 0.205619 18.5623 0.205619 19.1106H2.45029C2.45029 18.4366 2.63306 17.9512 2.99861 17.6542C3.36415 17.3571 3.94674 17.2086 4.74637 17.2086C5.47745 17.2086 6.00864 17.3229 6.33991 17.5513C6.68261 17.7798 6.85396 18.1111 6.85396 18.5452C6.85396 19.0021 6.6769 19.3734 6.32278 19.6589C5.96865 19.9331 5.46603 20.0702 4.8149 20.0702H3.75254ZM15.6296 27.4147C14.359 26.9288 13.0371 26.5529 11.6748 26.2983C11.5182 26.1696 11.3703 26.0298 11.2311 25.8789C10.2944 24.8508 9.82606 23.3715 9.82606 21.441C9.82606 20.4814 9.946 19.619 10.1859 18.8536C10.4258 18.0882 10.7799 17.4428 11.2483 16.9173C11.7166 16.3805 12.2878 15.9749 12.9617 15.7008C13.6357 15.4152 14.4125 15.2724 15.2921 15.2724C16.1603 15.2724 16.9313 15.4152 17.6053 15.7008C18.2907 15.9749 18.8619 16.3805 19.3188 16.9173C19.7757 17.4542 20.1241 18.1111 20.364 18.8879C20.6039 19.6532 20.7238 20.5214 20.7238 21.4924C20.7238 23.4572 20.2555 24.9365 19.3188 25.9303C18.4536 26.8596 17.2239 27.3544 15.6296 27.4147ZM16.4915 25.1592C16.1146 25.3077 15.7147 25.382 15.2921 25.382C14.2983 25.382 13.5272 25.0736 12.9789 24.4567C12.442 23.8284 12.1735 22.8403 12.1735 21.4924C12.1735 20.1444 12.442 19.122 12.9789 18.4252C13.5158 17.7284 14.2868 17.38 15.2921 17.38C16.2973 17.38 17.0627 17.7284 17.5882 18.4252C18.1136 19.122 18.3764 20.1444 18.3764 21.4924C18.3764 22.1663 18.2964 22.7489 18.1365 23.2401C17.9766 23.7313 17.7538 24.1369 17.4682 24.4567C17.1941 24.7651 16.8685 24.9993 16.4915 25.1592ZM30.6607 25.9316V15.6494H28.2619V19.9331H23.8239V15.6494H21.4422V27.0269H23.8239V21.9207H28.2619V26.1633C29.0496 26.045 29.8499 25.9671 30.6607 25.9316ZM34.6003 26.0958C35.4075 26.1993 36.2021 26.3451 36.982 26.531V17.637H40.4262V15.6494H31.1733V17.637H34.6003V26.0958ZM41.7192 25.8789C42.6673 26.907 44.021 27.421 45.7801 27.421C46.108 27.421 46.4214 27.4038 46.7202 27.3693C47.4273 27.1034 48.1501 26.8715 48.8866 26.6756C49.2291 26.4698 49.5359 26.2214 49.8068 25.9303C50.7435 24.9365 51.2119 23.4572 51.2119 21.4924C51.2119 20.5214 51.092 19.6532 50.8521 18.8879C50.6122 18.1111 50.2638 17.4542 49.8068 16.9173C49.3499 16.3805 48.7788 15.9749 48.0934 15.7008C47.4194 15.4152 46.6483 15.2724 45.7801 15.2724C44.9006 15.2724 44.1238 15.4152 43.4498 15.7008C42.7758 15.9749 42.2047 16.3805 41.7363 16.9173C41.268 17.4428 40.9138 18.0882 40.6739 18.8536C40.4341 19.619 40.3141 20.4814 40.3141 21.441C40.3141 23.3715 40.7825 24.8508 41.7192 25.8789ZM54.1406 25.918C53.3947 25.9382 52.6574 25.9943 51.9302 26.0846V15.6494H55.4257L57.4819 23.9941L59.5381 15.6494H62.9651V27.0269H61.84C61.4762 26.9086 61.1087 26.7992 60.7376 26.6989V19.2306L58.8195 26.2686C57.8818 26.1004 56.9251 25.9896 55.953 25.9398L54.1406 19.2648V25.918ZM46.9796 25.1592C46.6026 25.3077 46.2028 25.382 45.7801 25.382C44.7863 25.382 44.0152 25.0736 43.4669 24.4567C42.93 23.8284 42.6616 22.8403 42.6616 21.4924C42.6616 20.1444 42.93 19.122 43.4669 18.4252C44.0038 17.7284 44.7749 17.38 45.7801 17.38C46.7854 17.38 47.5507 17.7284 48.0762 18.4252C48.6017 19.122 48.8644 20.1444 48.8644 21.4924C48.8644 22.1663 48.7845 22.7489 48.6245 23.2401C48.4646 23.7313 48.2419 24.1369 47.9563 24.4567C47.6821 24.7651 47.3566 24.9993 46.9796 25.1592Z" fill="white"/>
<path fill-rule="evenodd" clip-rule="evenodd" d="M31.115 40.8094L31.115 25.9095L34.095 25.9095L34.095 40.8094C34.0949 44.3462 31.0442 47.6392 27.2465 48.4802C23.2106 49.3738 18.5325 47.5678 14.9374 41.576L17.4927 40.0428C20.6026 45.2259 24.1195 46.1204 26.6022 45.5707C29.3233 44.9681 31.115 42.6737 31.115 40.8094Z" fill="white"/>
<path fill-rule="evenodd" clip-rule="evenodd" d="M41.2817 0.376968C43.4022 0.853536 45.4255 1.47248 47.3265 2.2169V9.73262H48.7144V14.6503H47.0009V11.7545H38.5877V14.6503H36.8742V9.73262H37.611C37.9309 9.73262 38.2107 9.6755 38.4506 9.56127C38.6905 9.44704 38.8961 9.21286 39.0675 8.85874C39.2388 8.50462 39.3759 8.00771 39.4787 7.368C39.5815 6.7283 39.6615 5.87727 39.7186 4.8149L39.9585 0.376968H41.2817ZM16.382 1.54495C17.7294 1.09301 19.13 0.701896 20.5758 0.376968H25.5834V11.7545H23.2359V2.31321H18.7123V11.7545H16.382V1.54495ZM31.7162 10.1096C32.1389 10.1096 32.5387 10.0353 32.9157 9.88683C33.2926 9.72691 33.6182 9.49273 33.8923 9.1843C34.1779 8.86445 34.4007 8.45893 34.5606 7.96773C34.7205 7.47653 34.8005 6.89394 34.8005 6.21997C34.8005 4.87202 34.5378 3.84964 34.0123 3.15282C33.4868 2.456 32.7215 2.10759 31.7162 2.10759C30.711 2.10759 29.9399 2.456 29.403 3.15282C28.8661 3.84964 28.5977 4.87202 28.5977 6.21997C28.5977 7.56791 28.8661 8.55602 29.403 9.1843C29.9513 9.80116 30.7224 10.1096 31.7162 10.1096ZM31.7162 12.1486C29.957 12.1486 28.6034 11.6346 27.6552 10.6065C26.7185 9.5784 26.2502 8.09909 26.2502 6.16856C26.2502 5.20901 26.3701 4.34655 26.61 3.58119C26.8499 2.81583 27.204 2.17042 27.6724 1.64495C28.1407 1.10806 28.7119 0.702531 29.3859 0.428373C30.0598 0.142791 30.8366 0 31.7162 0C32.5844 0 33.3555 0.142791 34.0294 0.428373C34.7148 0.702531 35.286 1.10806 35.7429 1.64495C36.1998 2.18184 36.5483 2.83868 36.7881 3.61546C37.028 4.38082 37.148 5.24899 37.148 6.21997C37.148 8.18477 36.6796 9.66408 35.7429 10.6579C34.8176 11.6517 33.4754 12.1486 31.7162 12.1486ZM41.7919 4.8149L41.9119 2.31321H44.9962V9.73262H40.8666C41.1065 9.26427 41.3064 8.63027 41.4664 7.83065C41.6263 7.03102 41.7348 6.02577 41.7919 4.8149Z" fill="white"/>
</g>
<defs>
<clipPath id="clip0_27_189">
<rect width="62.9651" height="48.6957" fill="white"/>
</clipPath>
</defs>
</svg>
