<svg id="Слой_1" data-name="Слой 1" xmlns="http://www.w3.org/2000/svg" viewBox="0 0 800 195"><defs><style>.cls-1{fill:#1a1a1a;}</style></defs><title>menelai_full_</title><path d="M574.62,31.74h26.16V171.36H574.4V56.7H559.25Z"/><path class="cls-1" d="M26.51,64.08H52.42V76A44.37,44.37,0,0,1,67.19,65a43.22,43.22,0,0,1,17.72-3.6,32.94,32.94,0,0,1,17.47,4.74A34.36,34.36,0,0,1,114.92,80a41.76,41.76,0,0,1,15.15-13.86,41.33,41.33,0,0,1,19.61-4.74,36.33,36.33,0,0,1,19.38,5.12,29.66,29.66,0,0,1,12,13.38q3.66,8.26,3.66,26.86v60.56h-26.1V115q0-17.56-4.37-23.78T141.16,85a19.87,19.87,0,0,0-11.91,3.8,22.47,22.47,0,0,0-7.83,10.49q-2.57,6.69-2.56,21.49v46.61H92.76v-50q0-13.86-2.05-20.08A18.2,18.2,0,0,0,84.58,88a16.18,16.18,0,0,0-9.9-3,19.46,19.46,0,0,0-11.75,3.85A22.87,22.87,0,0,0,55,99.58q-2.62,6.93-2.62,21.83v9.72a23.56,23.56,0,0,0-11.84-3.89,23.81,23.81,0,0,0-14.07,3.89Z"/><path class="cls-1" d="M312.86,123.21H229.62q1.8,11,9.63,17.51t20,6.51a34.59,34.59,0,0,0,25-10.16L306,147.32a51.53,51.53,0,0,1-19.56,17.13Q275.08,170,259.42,170q-24.29,0-39.57-15.32t-15.29-38.4q0-23.62,15.24-39.24T258,61.43q24.39,0,39.67,15.61T313,118.28ZM287,102.81a26,26,0,0,0-10.13-14,29.32,29.32,0,0,0-17.54-5.41,31.07,31.07,0,0,0-19,6.07q-5.13,3.81-9.51,13.39Z"/><path class="cls-1" d="M333.83,64.08h25.91V74.67q8.82-7.44,16-10.34a38.57,38.57,0,0,1,14.65-2.9,35.45,35.45,0,0,1,26.06,10.72q9,9.1,9,27v68.24H399.8V122.12q0-18.48-1.66-24.55a16.85,16.85,0,0,0-5.78-9.24,16.12,16.12,0,0,0-10.17-3.18,19.1,19.1,0,0,0-13.5,5.27q-5.62,5.25-7.81,14.55-1.14,4.83-1.14,21v41.43H333.83Z"/><path class="cls-1" d="M553.93,123.21H470.7q1.8,11,9.63,17.51t20,6.51a34.55,34.55,0,0,0,25-10.16l21.83,10.25a51.51,51.51,0,0,1-19.55,17.13q-11.4,5.55-27,5.55-24.3,0-39.58-15.32t-15.28-38.4q0-23.62,15.23-39.24t38.2-15.61q24.41,0,39.68,15.61T554,118.28ZM528,102.81a26,26,0,0,0-10.12-14,29.34,29.34,0,0,0-17.54-5.41,31.08,31.08,0,0,0-19,6.07q-5.13,3.81-9.51,13.39Z"/><path class="cls-1" d="M697.72,64.08h25.91V167.35H697.72V156.43a50.58,50.58,0,0,1-15.21,10.39A42.58,42.58,0,0,1,666,170q-20,0-34.61-15.51t-14.6-38.59q0-23.91,14.13-39.19t34.32-15.28a43.65,43.65,0,0,1,17.44,3.51,47.6,47.6,0,0,1,15.07,10.53ZM670.49,85.34a26.18,26.18,0,0,0-20,8.5q-7.95,8.49-7.95,21.78t8.09,22a26.2,26.2,0,0,0,19.91,8.64,26.67,26.67,0,0,0,20.24-8.5q8-8.49,8-22.26,0-13.47-8-21.82T670.49,85.34Z"/><path class="cls-1" d="M759.94,21.56a15.86,15.86,0,0,1,11.69,4.94,16.37,16.37,0,0,1,4.87,12,16.17,16.17,0,0,1-4.83,11.81,15.64,15.64,0,0,1-11.54,4.89,15.89,15.89,0,0,1-11.79-5,16.66,16.66,0,0,1-4.87-12.1A15.94,15.94,0,0,1,748.3,26.4,15.84,15.84,0,0,1,759.94,21.56Z"/><path class="cls-1" d="M39,137.22a15.87,15.87,0,0,1,11.68,4.93,16.42,16.42,0,0,1,4.88,12,16.2,16.2,0,0,1-4.83,11.82,15.66,15.66,0,0,1-11.54,4.89,15.89,15.89,0,0,1-11.79-5,16.68,16.68,0,0,1-4.87-12.11A16.49,16.49,0,0,1,39,137.22Z"/><path class="cls-1" d="M747.17,64.71a22,22,0,0,0,25.91,0V168H747.17Z"/></svg>